<?xml version="1.0" encoding="UTF-8"?>
<svg viewBox="0 0 360 204" xmlns="http://www.w3.org/2000/svg">
<g transform="translate(0 -2431)" data-name="vetor entregamos">
<path transform="translate(-338.59 2313.5)" d="m532.52 311.56c-48.785 4.413-91.515-2.327-140.77 5.275a97.595 97.595 0 1 1 88.985 -173.73c8.147 4.172 19.49 5.959 31.113 4.908s22.462-4.845 29.726-10.411a97.6 97.6 0 1 1 118.75 154.93c-36.832 28.195-79.021 14.607-127.8 19.02z" fill="#e6e9f2" data-name="Path 664"/>
<g transform="translate(-106 2279.6)" data-name="Group 403">
<g transform="translate(124.88 241.09)" data-name="Group 377">
<g transform="translate(0 22.817)" data-name="Group 374">
<path transform="translate(-124.88 -262.99)" d="m163.92 340.28c-10.186-17.555-50.052-44.46-36.116-66.2 7.688-12.068 23.253-14.9 34.239-5.421 16.538 14.459 16.477 45.464 11.463 65.258z" fill="#66bcff" data-name="Path 585"/>
<g transform="translate(21.054 34.324)" opacity=".25" data-name="Group 373">
<path transform="translate(-145.72 -296.95)" d="m166.23 337.56c-5.353-9.223-26.3-23.361-18.977-34.788 4.039-6.34 12.218-7.83 17.99-2.848 8.69 7.6 8.147 26.9 5.513 37.3z" fill="#3792d9" data-name="Path 586"/>
</g>
</g>
<g transform="translate(41.108)" data-name="Group 375">
<path transform="translate(-165.56 -240.41)" d="m192.7 340.58c14-25.4 62.79-54.323 42.205-84.942-11.361-16.995-33.678-20.554-49.072-6.667-23.168 21.173-23.484 58.347-15.7 86.459z" fill="#1b6db3" data-name="Path 587"/>
</g>
<g transform="translate(49.365 48.946)" opacity=".25" data-name="Group 376">
<path transform="translate(-173.73 -288.84)" d="m187.27 338.35c6.92-12.551 31.033-26.847 20.859-41.981-5.614-8.4-16.644-10.158-24.252-3.294-11.45 10.465-11.784 27.883-7.937 41.778z" fill="#0059a5" data-name="Path 588"/>
</g>
</g>
<path transform="translate(2.602 .839)" d="m371.57 274.77a77.689 77.689 0 0 1 2.943 -14.275c1.129-3.63 4.269-6.77 6.476-5.151 3.825 2.943 7.21 7.359 6.474 12.216-0.587 3.678-1.968 8.242-1.838 11.774 0.085 2.283-0.328 2.052-4.9 6.2-2.095 1.9-4.295 6.5-7.669 6.076-2.351-0.308-1.781-13.308-1.486-16.84z" fill="#ffb92e" data-name="Path 593"/>
<path transform="translate(.112 1.656)" d="M157.071,334.084c11.02-1.545,71.322.293,88.932-.185,22.685-.64,45.36.78,68.044.141,20.892-.649,41.788-2.029,62.678-1.76,7.46.03,81.17.336,67.69,12.393-7.488,6.759-31.366,7.394-43,6.428-14.318-1.344-26.83-7.083-41.764-3.842-12.545,2.7-21.819,8.352-36.431,5.906-7.158-1.314-13.118-3.54-20.873-4.307a83.926,83.926,0,0,0-26.269,1.358c-6.272,1.077-12.245,2.337-19.111,2.492-9.852.143-18.794-2.1-28.339-3.42a125.146,125.146,0,0,0-33.12-1.055c-9.853,1.061-19.111,2.673-29.258,2.816-9.252.143-25.663-.291-30.114-6.548C131.689,338.058,152.1,334.78,157.071,334.084Z" fill="#4aba9c" data-name="Path 594"/>
<g transform="translate(254.95 283.57)" data-name="Group 383">
<path transform="translate(-253.56 -282.24)" d="m265.07 301.12c-5.919 2.6-7.716 7.546-8.207 12.743a12.347 12.347 0 0 0 4.513 10.989c1.866 1.471 3.435 2.55 5 0.3-2.648-2.749-6.081-6.673-3.825-12.756 3.706-9.983 2.519-11.276 2.519-11.276z" fill="#0059a5" data-name="Path 595"/>
<path transform="translate(-253.33 -282.25)" d="m278.76 300.54c4.878 1.237 8.813 8.131 9.3 13.328a12.345 12.345 0 0 1 -4.513 10.989c-1.866 1.471-3.434 2.55-5 0.3 2.649-2.749 7.133-8.23 3.965-13.89-5.788-10.345-3.752-10.727-3.752-10.727z" fill="#0059a5" data-name="Path 596"/>
<path transform="translate(-253.3 -281.88)" d="m280.77 338.03c0.44 3.293 9.6 1.955 11.07 0.483a11.151 11.151 0 0 0 -6.281 -3.04 9.538 9.538 0 0 0 -4.147 0.736c-0.937 0.505-0.642 1.821-0.642 1.821z" fill="#414656" data-name="Path 597"/>
<path transform="translate(-253.59 -281.88)" d="m264.66 338.03c-0.443 3.293-9.6 1.955-11.072 0.483a11.156 11.156 0 0 1 6.282 -3.04 9.532 9.532 0 0 1 4.145 0.736c0.938 0.505 0.645 1.821 0.645 1.821z" fill="#414656" data-name="Path 598"/>
<path transform="translate(-253.33 -281.88)" d="M279.307,337.632c1.176.492,3.238,1.276,3.825-.49-1.078-1.371-4.021-2.255-5.3-.783Z" fill="#f9aeb3" data-name="Path 599"/>
<path transform="translate(-253.5 -281.88)" d="M266.059,337.632c-1.178.492-3.24,1.276-3.829-.49,1.081-1.371,4.025-2.255,5.3-.783Z" fill="#f9aeb3" data-name="Path 600"/>
<path transform="translate(-253.49 -282.26)" d="M269.46,299.657a14.692,14.692,0,0,0-6.3,2.641c-1.4,1.137.546,7.879,1.135,9.939.443,2.207-1.613,6.4-1.171,8.609.736,5,1.627,8.536,7.661,8.536,2.942,0,9.123.883,10.6-2.06.587-1.471-.043-4.126-.043-6.792,0-2.256-1.682-5.838-.74-8.862,1.079-3.466,2.089-8.806.91-9.883-2.039-1.863-4.813-2.373-9.4-2.276Z" fill="#1b6db3" data-name="Path 601"/>
<path transform="translate(-253.49 -282.25)" d="M270.883,314.161c-1.031-4.12-3.826-3.826-6.035-6.475-1.952-2.373-.73-4.748.786-6.87a11.039,11.039,0,0,0-2.475,1.466c-1.4,1.137.546,7.879,1.135,9.939.443,2.207-1.613,6.4-1.171,8.609.093.621.186,1.222.293,1.794a3.713,3.713,0,0,0,.845.366,5.087,5.087,0,0,0,3.825-.588C270.44,320.784,271.472,316.811,270.883,314.161Z" fill="#211915" opacity=".15" data-name="Path 602"/>
<path transform="translate(7.138 33.388)" d="M2.33,0H21.018a2.33,2.33,0,0,1,2.33,2.33V12.583a2.33,2.33,0,0,1-2.33,2.33H2.329A2.329,2.329,0,0,1,0,12.584V2.33A2.33,2.33,0,0,1,2.33,0Z" fill="#757785" data-name="Rectangle 471"/>
<path transform="translate(-253.5 -282.07)" d="M263.03,317.519c4.3,0,9.251-.431,13.442-.323,2.367.108,6.883.646,3.227,3.227-3.011,2.042-6.668,3.333-9.894,5.055-1.182.537-5.269,3.44-6.56,2.793-1.4-.644-.752-4.945-.644-6.128Z" fill="#fff" opacity=".2" data-name="Path 603"/>
<path transform="translate(-253.59 -281.98)" d="m253.86 326.95c-2.186 3.85 9.571 7.172 12.852 8.24a92.319 92.319 0 0 0 12.815 2.8c1.177 0 1.51-2.409 1.51-2.409s-10.327-4.709-11.994-5.592c-1.571-0.886-12.997-6.886-15.183-3.039z" fill="#439be4" data-name="Path 604"/>
<path transform="translate(-253.47 -281.98)" d="m291.74 326.95c2.182 3.85-9.572 7.172-12.853 8.24a92.2 92.2 0 0 1 -12.812 2.8c-1.177 0-1.511-2.409-1.511-2.409s10.325-4.709 12-5.592c1.564-0.886 12.99-6.886 15.176-3.039z" fill="#91cdff" data-name="Path 605"/>
<path transform="translate(-253.41 -282.28)" d="M271.38,297.753c0,.717-.589,2.889-.41,3.442.62,1.907,3.71,1.282,4.042-.126a7.594,7.594,0,0,0-.221-3.6Z" fill="#f9aeb3" data-name="Path 606"/>
<path transform="translate(-253.46 -282.44)" d="M268.8,295.247c-6.077,1.121-2.72-6.877-1.119-8.957,1.119-1.759,2.558-3.679,4.8-3.84,2.4-.16,3.358,1.6,5.437,2.24,2.239.641,2.939-.664,4.539,1.255a5.939,5.939,0,0,1,.48,4.639c-1.119,2.4-5.5,4.184-8.057,3.862Z" fill="#414656" data-name="Path 607"/>
<path transform="translate(-253.44 -282.38)" d="m267.39 291.59c-0.378 1.114 0.857 1.619 1.257 1.181a8.685 8.685 0 0 0 0.246 3.352c1.324 3.679 4.825 3.5 7.327 1.584a4.154 4.154 0 0 0 1.9 -3.694 5.976 5.976 0 0 0 -0.516 -4.507c-2.059-2.8-6.915-2.218-8.017 2.381 0.04-1.619-1.301-2.955-2.197-0.297z" fill="#f9aeb3" data-name="Path 608"/>
</g>
<g transform="translate(303.78 273.62)" data-name="Group 393">
<g transform="translate(15.806 44.328)" data-name="Group 386">
<path transform="translate(-317.55 -316.46)" d="M324.639,316.46a7.1,7.1,0,0,0-7.093,7.094v7.975a7.1,7.1,0,0,0,7.093,7.1h52.732V316.46Z" fill="#ffdb29" data-name="Path 609"/>
<rect transform="translate(47.435 2.314)" width="45.546" height="17.534" fill="#e6e9f2" data-name="Rectangle 472"/>
<g transform="translate(35.513)" data-name="Group 384">
<path transform="translate(-352.69 -316.46)" d="M412.514,338.626H359.783a7.1,7.1,0,0,1-7.1-7.1v-7.975a7.1,7.1,0,0,1,7.1-7.094h52.731v2.355H359.783a4.746,4.746,0,0,0-4.74,4.74v7.975a4.745,4.745,0,0,0,4.74,4.741h52.731Z" fill="#d9ba23" data-name="Path 610"/>
</g>
<path transform="translate(-317.15 -316.44)" d="M359.759,318.79a4.746,4.746,0,0,0-4.74,4.74V331.5a4.745,4.745,0,0,0,4.74,4.741h50.373v-2.375l-40.487-.442,40.487-.368v-1.619l-33.644-.515,33.644-.513v-2.649l-19.664-.294,19.664-.3v-1.913l-41.886-.442,41.886-.368v-2.888l-35.337-.642,35.337-.541V318.79Z" fill="#fafcff" data-name="Path 611"/>
<g transform="translate(3.531 3.532)" opacity=".2" data-name="Group 385">
<path transform="translate(-321.04 -319.96)" d="M349.486,331.493v-7.975a7.056,7.056,0,0,1,.969-3.562H324.6a3.566,3.566,0,0,0-3.562,3.562v7.975a3.567,3.567,0,0,0,3.562,3.563h25.853A7.066,7.066,0,0,1,349.486,331.493Z" fill="#fff" data-name="Path 612"/>
</g>
</g>
<g data-name="Group 389">
<path transform="translate(-301.53 -272.6)" d="M389.778,272.6a7.1,7.1,0,0,1,7.094,7.094v7.975a7.1,7.1,0,0,1-7.094,7.094H337.047V272.6Z" fill="#66bcff" data-name="Path 613"/>
<rect transform="translate(2.356 2.314)" width="45.546" height="17.535" fill="#e6e9f2" data-name="Rectangle 473"/>
<g data-name="Group 387">
<path transform="translate(-301.9 -272.6)" d="M301.9,294.759h52.731a7.1,7.1,0,0,0,7.094-7.094v-7.975a7.1,7.1,0,0,0-7.094-7.094H301.9v2.356h52.731a4.744,4.744,0,0,1,4.739,4.739v7.975a4.744,4.744,0,0,1-4.739,4.74H301.9Z" fill="#3792d9" data-name="Path 614"/>
</g>
<path transform="translate(-301.88 -272.57)" d="M354.611,274.926a4.744,4.744,0,0,1,4.739,4.739v7.975a4.744,4.744,0,0,1-4.739,4.74H304.236V290l40.487-.442-40.487-.366v-1.62l33.645-.515-33.645-.513V283.9l19.664-.293-19.664-.3V281.4l41.886-.441-41.886-.37V277.7l35.339-.642-35.339-.539v-1.593Z" fill="#fafcff" data-name="Path 615"/>
<g transform="translate(62.391 3.533)" opacity=".2" data-name="Group 388">
<path transform="translate(-363.64 -276.09)" d="m364.61 287.63v-7.975a7.033 7.033 0 0 0 -0.969 -3.561h25.856a3.565 3.565 0 0 1 3.563 3.561v7.975a3.566 3.566 0 0 1 -3.563 3.562h-25.856a7.037 7.037 0 0 0 0.969 -3.562z" fill="#fafcff" data-name="Path 616"/>
</g>
</g>
<g transform="translate(34.121 22.164)" data-name="Group 392">
<path transform="translate(-335.67 -294.53)" d="m342.76 294.53a7.1 7.1 0 0 0 -7.093 7.1v7.973a7.1 7.1 0 0 0 7.093 7.094h52.732v-22.167z" fill="#0059a5" data-name="Path 617"/>
<rect transform="translate(47.435 2.315)" width="45.546" height="17.535" fill="#e6e9f2" data-name="Rectangle 474"/>
<g transform="translate(35.512)" data-name="Group 390">
<path transform="translate(-370.81 -294.53)" d="M430.637,316.692H377.906a7.1,7.1,0,0,1-7.1-7.094v-7.975a7.1,7.1,0,0,1,7.1-7.1h52.731v2.355H377.906a4.746,4.746,0,0,0-4.74,4.741V309.6a4.746,4.746,0,0,0,4.74,4.741h52.731Z" fill="#004580" data-name="Path 618"/>
</g>
<path transform="translate(-335.27 -294.5)" d="M377.882,296.857a4.746,4.746,0,0,0-4.74,4.741v7.975a4.746,4.746,0,0,0,4.74,4.741h50.373v-2.376l-40.487-.442,40.487-.367v-1.62l-33.644-.514,33.644-.515v-2.648l-19.663-.3,19.663-.293v-1.913l-41.886-.443,41.886-.369v-2.887l-35.337-.642,35.337-.54v-1.594Z" fill="#fafcff" data-name="Path 619"/>
<g transform="translate(3.531 3.532)" opacity=".2" data-name="Group 391">
<path transform="translate(-339.16 -298.02)" d="m367.61 309.56v-7.975a7.045 7.045 0 0 1 0.969 -3.563h-25.853a3.567 3.567 0 0 0 -3.562 3.563v7.975a3.567 3.567 0 0 0 3.562 3.563h25.853a7.043 7.043 0 0 1 -0.969 -3.563z" fill="#fff" data-name="Path 620"/>
</g>
</g>
</g>
<g transform="translate(309.62 222.13)" data-name="Group 394">
<path transform="translate(-307.41 -221.46)" d="M334.252,238.347c3.644,1.307,5.981,3.988,7.631,5.5,2.2,2.063,3.988,3.782,4.882,6.669s.755,5.088-1.583,7.081a17.684,17.684,0,0,1-5.637,3.507,7.024,7.024,0,0,1-1.995.482c-1.03.206-1.166.412-1.166-.62a33.942,33.942,0,0,1,.136-3.438,34.5,34.5,0,0,0,4.263-3.574c1.443-1.649.205-1.649-1.1-3.025-1.925-2.063-6.876-7.013-4.33-10.174Z" fill="#1b6db3" data-name="Path 621"/>
<path transform="translate(-307.69 -221.46)" d="M320.708,238.552a32.631,32.631,0,0,0-7.631,5.5c-2.2,2.063-3.986,3.783-4.882,6.67s-.754,5.087,1.584,7.081a17.71,17.71,0,0,0,5.636,3.507,7.066,7.066,0,0,0,2,.482c1.031.205,1.167.412,1.167-.619a33.929,33.929,0,0,0-.136-3.438,34.5,34.5,0,0,1-4.265-3.574c-1.442-1.651-.206-1.651,1.1-3.026,1.923-2.063,6.876-7.012,4.33-10.175Z" fill="#1b6db3" data-name="Path 622"/>
<path transform="translate(-307.36 -220.82)" d="M341,298.935c-1.785-.042-3.137,1.614-1.521,2.921,1.218,1.047,2.525,2.006,3.744,3.139a12.321,12.321,0,0,0,6.276,3.049,4.011,4.011,0,0,0-1.045-2.353c-.61-.828-1.134-1.7-1.7-2.527-1.045-1.568-2.266-3.529-4.36-3.617Z" fill="#414656" data-name="Path 623"/>
<path transform="translate(-307.67 -220.83)" d="M317.554,298.857c1.787-.042,3.138,1.614,1.525,2.921-1.218,1.046-2.525,2-3.746,3.139a12.336,12.336,0,0,1-6.276,3.048,4,4,0,0,1,1.046-2.352c.609-.829,1.132-1.7,1.7-2.528,1.046-1.567,2.266-3.529,4.358-3.617Z" fill="#414656" data-name="Path 624"/>
<path transform="translate(-307.34 -220.85)" d="M341.694,297.21c-.393.871-1.439,2.525-.393,3.355a1.542,1.542,0,0,0,2.308-.393c.229-.467.8-2.579.8-2.579a3.511,3.511,0,0,0-2.626-.733Z" fill="#e6b795" data-name="Path 625"/>
<path transform="translate(-307.62 -220.86)" d="M316.633,296.3c.391.87,1.6,3.339.55,4.169a1.545,1.545,0,0,1-2.31-.394,22.817,22.817,0,0,1-.681-2.67s.837-1.666,2.355-1.455Z" fill="#e6b795" data-name="Path 626"/>
<path transform="translate(-307.57 -221.64)" d="M322.654,236.444c-1.951.627-3.9.313-4.033-2.665-.131-2.038.78-1.567,1.693-2.979,1.169-1.723.012-4.379,2.354-5.006-.261-4.231,3.242-5.025,5.845-3.3.392.313.13,1.1.651,1.411.651.313,2.213-.313,3.124-.313,2.344.313,2.474,1.253.52,2.978.652.783,3.774,1.567,3.774,2.978,0,.941-1.041.783-1.171,1.253a6.081,6.081,0,0,0-.261,1.725c.954,3.238-.42,4.792-3.024,3.381Z" fill="#414656" data-name="Path 627"/>
<path transform="translate(-307.6 -221.49)" d="M316.214,242.992c-.384,3.124.843,10.393,2.119,14.17,1.811,5.361,1.608,12.495,8.506,12.1,3.774-.259,5.858-2.473,7.81-5.465.78-1.3,2.086.235,2.477-1.2.391-1.953-.326-4.035.2-5.989.65-2.733,1.825-9.916,1.727-12.85-.11-3.262-1.389-4.13-5.253-5.749-4.494-1.884-6.227-2.8-11.042-.456C322.752,237.562,316.6,239.841,316.214,242.992Z" fill="#1b6db3" data-name="Path 628"/>
<path transform="translate(-307.6 -221.47)" d="M322.371,251.807a8.9,8.9,0,0,1-3.724-5.362c-.671-3.2.744-5.659,2.83-7.968l-.3.6c.49-.491.6-.828.467-1.06-1.788.822-5.151,2.656-5.434,4.961-.384,3.124.843,10.393,2.119,14.17.913,2.7,1.317,5.855,2.375,8.266,2.706-.45,6.06-1.458,7.473-3.4,1.339-1.789.445-4.245-.6-6.035C326.244,253.818,324.307,253.148,322.371,251.807Z" fill="#414656" opacity=".15" data-name="Path 629"/>
<path transform="translate(-307.46 -221.18)" d="M341.259,267.352c3.09,2.5,8.535,6.181,9.712,10.3,1.177,3.827-1.764,10.007-2.941,13.686-1.032,2.649-1.766,8.682-5.3,7.209-1.62-.735-1.584-1.152-1.177-4.707.185-1.609-.148-3.091.148-4.564.294-2.5,1.03-4.856,1.471-7.21.736-4.119-1.471-3.973-4.855-5.444-2.354-1.03-5.3-2.061-7.36-3.532-3.384-2.354-1.176-5.151-.589-8.094Z" fill="#757785" data-name="Path 630"/>
<path transform="translate(-307.68 -221.18)" d="M318.128,267.352c-3.09,2.5-8.533,6.181-9.712,10.3-1.177,3.827,1.766,10.007,2.944,13.686,1.032,2.649,1.766,8.682,5.3,7.209,1.619-.735,1.176-3.973,1.176-4.707a23.239,23.239,0,0,0-.147-4.564c-.293-2.5-1.03-4.856-1.471-7.21-.736-4.119,1.471-3.973,4.856-5.444,2.356-1.03,5.3-2.061,7.358-3.532,3.385-2.354,1.179-5.151.589-8.094Z" fill="#757785" data-name="Path 631"/>
<path transform="translate(-307.55 -221.51)" d="m320.84 235.63a1.389 1.389 0 1 1 1.389 1.39 1.389 1.389 0 0 1 -1.389 -1.39z" fill="#f9aeb3" data-name="Path 632"/>
<path transform="translate(-307.44 -221.51)" d="m331.51 235.63a1.389 1.389 0 1 1 1.389 1.39 1.389 1.389 0 0 1 -1.389 -1.39z" fill="#f9aeb3" data-name="Path 633"/>
<path transform="translate(-307.54 -221.58)" d="m321.58 234.87c0-2.993 4.033-4.686 5.335-7.419 1.461 3.311 6.49 4.072 6.97 6.806 0.163 0.921-2.273 6.479-6.01 6.479s-6.295-4.086-6.295-5.866z" fill="#f9aeb3" data-name="Path 634"/>
<path transform="translate(6.033 31.255)" d="M2.329,0h23.4a2.329,2.329,0,0,1,2.329,2.329V14.94a2.331,2.331,0,0,1-2.331,2.331H2.329A2.329,2.329,0,0,1,0,14.942V2.329A2.329,2.329,0,0,1,2.329,0Z" fill="#414656" data-name="Rectangle 475"/>
<path transform="translate(-307.61 -221.3)" d="m331.08 254.31c-2.972 0-11.235-0.592-13.979 0.321-2.258 0.216-1.95 8.711-1.721 12.369 0 0 15.279-6.5 20.538-9.249 6.175-3.203-0.719-3.67-4.838-3.441z" fill="#fff" opacity=".1" data-name="Path 635"/>
<path transform="translate(-307.55 -221.54)" d="M321.3,233.2c.076.515.884,4.121,1.915,2.133.809-1.324-1.252-4.267-2.723-3.751Z" fill="#414656" data-name="Path 636"/>
<path transform="translate(-307.43 -221.54)" d="M334.207,233.2c-.075.515-.884,4.121-1.915,2.133-.808-1.324.847-4.143,2.318-3.629Z" fill="#414656" data-name="Path 637"/>
</g>
<g transform="translate(366.48 235.09)" data-name="Group 396">
<path transform="translate(-363.42 -233.88)" d="m414.98 291.82c-0.945 1.349-0.9 2.428 4.813 2.519 1.98 0.03 4.5 0.359 6.3-0.362-1.846-1.438-4.321-1.889-6.435-2.608-2.357-0.801-3.094-1.814-4.678 0.451z" fill="#414656" data-name="Path 638"/>
<path transform="translate(-363.44 -233.9)" d="M412.629,289.862c.248.3,2.229,2.13,3.567,2.225.449.032,1.135-.126,1.245-.607.206-1.237-2.164-2.742-2.164-2.742s-1.352.756-1.662.975Z" fill="#f9aeb3" data-name="Path 639"/>
<path transform="translate(-363.96 -234.47)" d="M394.02,272.629c1.03-4.414.293-4.856-1.179-8.535-.735-1.471-.441-3.828-1.176-5-1.031-1.62-2.305-1.516-2.894-3.723-.443-1.913.246-2.9,1.274-4.372a13.249,13.249,0,0,0,1.471-4.268c.443-2.061,1.727-3.114,2.17-5.027,1.176-5.3-4.564-8.24-8.979-6.916a11.309,11.309,0,0,0-4.814,2.819c-2.207,1.765-5.15,1.03-7.359,2.8-2.5,2.208-2.5,5.74-1.764,8.683.882,3.678.441,5.3-1.914,8.388-1.471,1.766-4.561,4.711-3.678,7.212,1.03,3.091,4.563,2.208,2.5,6.328-1.177,2.355-4.122,4.414-3.679,7.505.3,2.06,2.649,4.562,4.708,5.3,4.269,1.471,13.834-2.356,16.777-5.592Z" fill="#414656" data-name="Path 640"/>
<path transform="translate(-363.91 -234.35)" d="m388.98 271.75c1.013-3.641 1.417-6.877 0-10.521-1.011-2.224-4.27-3.518-4.47-5.944-0.405-2.224 1.152-7.744-0.669-9.362-2.832-2.428-6.412 2.686-6.816 4.91-0.808 3.643-0.808 4.248-3.439 7.08-2.225 2.429-4.465 5.1-2.832 7.891 1.406 2.405-0.808 5.057-1.819 8.294-2.564 3.9 0.107 6.743 2.738 7.957l0.3-1.485a16.869 16.869 0 0 0 3.124 2.853c3.105-0.794 9.246-1.708 11.454-3.26 1.6-2.387 1.868-5.416 2.429-8.413z" fill="#211915" opacity=".3" data-name="Path 641"/>
<path transform="translate(-363.86 -234.07)" d="M372.59,290.622c1.358,3.666,7.411,4.328,10.449,3.827,3.544-.585,4.923-2.66,7.652-4.269,5.74-3.384,9.122-8.976,10.595-10.889,1.619,3.384,2.354,4.709,5.445,7.063,1.471,1.177,3.327,2.16,4.8,3.483,2.209,1.764,2.663,1.079,5.165-.393-2.134-2.721-5.55-6.915-7.9-10.3a30.308,30.308,0,0,0-5.445-6.033c-4.56-3.383-20.894,7.8-25.162,13.392Z" fill="#757785" data-name="Path 642"/>
<path transform="translate(-363.72 -234.07)" d="M388.432,273.884c1.176-.514,4.489-1.986,5.739-1.324-.587,1.177-2.943,1.839-4.12,2.427-.515.221-1.251.737-1.84.515-.588-.148-2.783-1.288-1.9-1.435Z" fill="#f9aeb3" data-name="Path 643"/>
<path transform="translate(-363.7 -234.21)" d="M409.35,259.825a.594.594,0,0,0-.26-.369l-.806-.513a.611.611,0,0,0-.315-.09.588.588,0,0,0-.5.272l-7.02,11.031-11.793,5.58a.6.6,0,0,0-.3.336.589.589,0,0,0,.023.45l.409.864a.591.591,0,0,0,.783.281l12.212-5.78a.78.78,0,0,0,.1-.067.582.582,0,0,0,.227-.28c0-.007,0-.013,0-.02l7.156-11.25A.588.588,0,0,0,409.35,259.825Z" fill="#66bcff" data-name="Path 644"/>
<path transform="translate(-363.8 -234.29)" d="M383.044,252.067c1.766.2-1.389,3.473-1,5.811.16.967-2.649-.294-3.041-1.08-.589-1.177.859-4.225,1.544-5.108Z" fill="#f9aeb3" data-name="Path 645"/>
<path transform="translate(-363.8 -234.39)" d="M381.073,246.79c-1.273.49-2.354-1.177-1.568-2.256.981-1.472,1.854-.306,2.748.2,1.93,1.082,3.825-.6,3.825-2.855,2.31,1.022,2.714,3.7,2.377,6.079a7.485,7.485,0,0,1-2.805,4.921,6.76,6.76,0,0,1-3.493,1.409,3.014,3.014,0,0,1-1.965-.528C377.665,252.089,378.583,247.458,381.073,246.79Z" fill="#f9aeb3" data-name="Path 646"/>
<path transform="translate(-363.88 -234.25)" d="m371.57 274.77a77.689 77.689 0 0 1 2.943 -14.275c1.129-3.63 4.269-6.77 6.476-5.151 3.825 2.943 7.21 7.359 6.474 12.216-0.587 3.678-1.968 8.242-1.838 11.774 0.085 2.283-0.328 2.052-4.9 6.2-2.095 1.9-4.295 6.5-7.669 6.076-2.351-0.308-1.781-13.308-1.486-16.84z" fill="#1b6db3" data-name="Path 647"/>
<path transform="translate(-363.88 -234.25)" d="m380.99 255.34c-2.207-1.619-5.347 1.521-6.476 5.151a77.689 77.689 0 0 0 -2.943 14.275c-0.3 3.532-0.865 16.536 1.489 16.836 1.2 0.152 0.765-12.533 1.045-13.864 1.571-7.456 8.003-21.54 6.885-22.398z" fill="#211915" opacity=".15" data-name="Path 648"/>
<path transform="translate(-363.86 -234.25)" d="M373.326,273.17c-.806-2.751,1.909-18.725,6.225-18.27,4.316.227,2.552,6.13,1.961,9.084-.7,3.22-2.83,6.378-2.44,6.8.459.5,9.1,2.289,9.62,3.318.37.745-.3,1.693-.3,1.693S374.133,275.923,373.326,273.17Z" fill="#0059a5" data-name="Path 649"/>
<g transform="translate(9.121 47.429)" data-name="Group 395">
<path transform="translate(-372.98 -281.4)" d="M382.807,290.141c-2.568.263-3.967-.324-6.886.327a3.984,3.984,0,0,1-2.876.855.6.6,0,0,1-.065-.02c1.869,2.978,7.248,3.515,10.055,3.051,3.544-.585,4.923-2.66,7.652-4.269a31.092,31.092,0,0,0,9-8.684C397.309,283.833,389.179,289.492,382.807,290.141Z" fill="#211915" opacity=".15" data-name="Path 650"/>
</g>
<path transform="translate(-363.56 -233.99)" d="m408.65 286.46a20.417 20.417 0 0 1 -3.187 -4.292c-0.846-1.367-2.341-2.861-4.1-2.733l-0.206 0.155c1.494 3.1 2.3 4.433 5.266 6.695 1.358 1.087 3.034 2.019 4.442 3.2a1.974 1.974 0 0 0 -0.071 -0.484c-0.259-0.98-1.498-1.891-2.144-2.541z" fill="#211915" opacity=".15" data-name="Path 651"/>
</g>
<g transform="translate(354.79 175.42)" data-name="Group 397">
<path transform="translate(-352.22 -175.26)" d="m367.53 190.56h37.971v74.88" fill="none" stroke="#757785" stroke-dasharray="3.495" stroke-miterlimit="10" data-name="Path 652"/>
<path transform="translate(-352.38 -175.42)" d="m352.38 190.72a15.3 15.3 0 1 1 15.3 15.3 15.3 15.3 0 0 1 -15.3 -15.3z" fill="#0059a5" data-name="Path 653"/>
<path transform="translate(-352.28 -175.34)" d="m362.53 183.45l12.457 7.192-12.457 7.192z" fill="#fff" data-name="Path 654"/>
<path transform="translate(-352.35 -175.38)" d="m355.88 190.69a11.773 11.773 0 1 1 11.774 11.773 11.773 11.773 0 0 1 -11.774 -11.773z" fill="none" stroke="#fff" stroke-miterlimit="10" stroke-width="1.165" data-name="Path 655"/>
</g>
<g transform="translate(195.33 250.83)" data-name="Group 399">
<g transform="translate(0)" data-name="Group 398">
<path transform="translate(-194.59 -250.04)" d="m194.59 265.63a15.583 15.583 0 1 1 15.583 15.584 15.583 15.583 0 0 1 -15.583 -15.584z" fill="#fff" data-name="Path 656"/>
<rect transform="translate(9.464 14.132)" width="12.37" height="9.619" fill="#0059a5" data-name="Rectangle 476"/>
<line transform="translate(25.362 12.948)" y2="6.04" fill="none" stroke="#004580" stroke-miterlimit="10" stroke-width=".582" data-name="Line 78"/>
<path transform="translate(-194.34 -249.86)" d="m218.23 268.85a1.471 1.471 0 1 1 1.471 1.469 1.47 1.47 0 0 1 -1.471 -1.469z" fill="#0059a5" data-name="Path 657"/>
<path transform="translate(-194.54 -249.98)" d="m210.19 269.42l-11.166-6.493 11.166-6.492 11.167 6.492z" fill="#0059a5" stroke="#fff" stroke-miterlimit="10" data-name="Path 658"/>
</g>
</g>
<path transform="translate(.897 1.109)" d="m270.61 322.52h-60.82v-42.08" fill="none" stroke="#fafcff" stroke-dasharray="3.495" stroke-miterlimit="10" data-name="Path 659"/>
<path transform="translate(1.577 .795)" d="m274.15 250.73v9.848h49.193" fill="none" stroke="#757785" stroke-dasharray="3.495" stroke-miterlimit="10" data-name="Path 660"/>
<g transform="translate(260.34 221.22)" data-name="Group 401">
<circle cx="15.584" cy="15.584" r="15.584" fill="#ffdb29" data-name="Ellipse 28"/>
<g transform="translate(5.534 8.967)" data-name="Group 400">
<rect width="20.1" height="13.234" fill="#fff" data-name="Rectangle 477"/>
<path transform="translate(-264.4 -229.55)" d="m274.27 236.74l-2.464-1.794-7.407 7.846h20.1l-7.672-7.846z" fill="none" stroke="#ffdb29" stroke-miterlimit="10" stroke-width="1.284" data-name="Path 661"/>
<path transform="translate(-264.4 -229.61)" d="m274.27 236.79-9.869-7.181h20.1z" fill="none" stroke="#ffdb29" stroke-miterlimit="10" stroke-width="1.284" data-name="Path 662"/>
</g>
</g>
</g>
</g>
</svg>
